<svg width="537" height="218" viewBox="0 0 537 218" fill="none" xmlns="http://www.w3.org/2000/svg">
<g clip-path="url(#clip0)">
<path d="M288.364 29.5818C288.89 29.8857 289.416 29.8799 290.01 29.7595C296.146 28.4639 302.384 28.4238 308.571 28.8022C316.37 29.2837 324.032 30.8488 331.459 33.3541C339.104 35.9339 346.32 39.4023 352.678 44.4416C359.379 49.7502 363.674 56.8075 366.87 64.6157C369.38 70.7499 371.09 77.1192 372.193 83.6318C372.971 88.2009 373.474 92.8159 373.788 97.4539C374.069 101.553 373.966 105.64 373.989 109.728C374.023 115.329 373.388 120.89 372.633 126.434C371.89 131.892 370.918 137.292 369.426 142.589C367.762 148.494 365.892 154.324 363.17 159.862C360.963 164.351 358.579 168.72 355.463 172.647C352.352 176.574 348.716 179.996 345.033 183.367C341.454 186.641 337.423 189.324 333.518 192.173C332.877 191.858 332.791 191.204 332.591 190.631C331.636 187.937 330.699 185.236 329.801 182.525C326.199 171.672 322.459 160.86 318.874 150.002C318.514 148.918 318.079 147.858 317.719 146.768C317.388 145.759 317.691 145.209 318.737 145.066C319.669 144.447 319.463 143.409 319.623 142.526C319.829 141.385 319.766 140.193 320.372 139.138C323.729 136.403 326.913 133.491 329.435 129.931C331.391 127.162 332.997 124.209 334.101 120.987C335.759 116.155 334.976 111.522 333.083 106.965C332.791 106.26 332.443 105.583 332.288 104.832C332.14 103.846 332.317 102.837 332.008 101.868C331.859 101.398 332.054 101.094 332.385 100.75C333.689 99.4203 333.558 98.0386 332.042 96.9608C330.739 96.0321 329.212 95.6537 327.685 95.3212C326.793 95.1263 326.193 94.7422 326.21 93.7332C326.708 89.2787 327.422 84.8586 327.988 80.4099C328.217 78.6155 328.4 76.8096 328.732 75.0324C329.223 72.4297 327.422 70.7958 326.107 68.9957C325.678 68.4109 324.764 68.6574 324.06 68.6574C313.837 68.6517 303.613 68.6517 293.39 68.6459C292.635 68.6459 291.863 68.7319 291.131 68.4568C290.308 67.6427 290.8 66.777 291.114 65.9744C291.303 65.4928 291.783 65.596 292.229 65.7164C295.934 66.6738 298.416 65.0858 299.176 61.325C299.559 59.4331 299.399 57.5986 298.456 55.9246C297.529 54.2792 296.237 53.0753 294.156 53.1269C293.538 53.1441 292.904 53.1097 292.486 52.525C292.092 51.43 292.584 50.4726 292.978 49.5152C293.481 48.2826 294.259 47.1876 294.768 45.9493C295.568 44.0059 295.648 42.0509 294.894 40.1132C293.836 37.3901 292.395 34.965 289.416 33.9331C289.147 33.8414 288.815 33.7095 288.764 33.4286C288.535 32.1616 287.809 30.9405 288.364 29.5818Z" fill="url(#paint0_linear)"/>
<path d="M318.903 145.49C318.034 145.467 317.765 145.731 318.085 146.665C322.311 159.037 326.502 171.426 330.699 183.809C331.642 186.601 332.591 189.393 333.535 192.179C335.319 197.522 337.097 202.865 338.91 208.202C339.11 208.793 339.264 209.286 338.664 209.704C337.532 209.55 336.388 209.521 335.244 209.521C293.321 209.527 251.392 209.527 209.469 209.527C205.872 209.527 205.838 209.504 206.856 206.024C211.928 188.67 216.908 171.294 222.025 153.958C222.666 151.785 222.872 151.659 225.142 151.659C253.982 151.653 282.818 151.653 311.658 151.659C312.276 151.659 312.899 151.63 313.488 151.854C314.203 152.163 314.02 152.897 314.197 153.447C314.735 155.11 315.266 156.772 315.672 158.469C315.981 159.427 316.381 160.356 316.536 161.353C316.77 162.121 317.13 162.849 317.222 163.663C317.147 162.775 316.736 161.984 316.496 161.147C316.364 160.149 315.918 159.249 315.644 158.297C315.221 156.411 314.5 154.605 314.066 152.725C313.9 151.682 314.043 150.667 314.391 149.675C314.449 149.394 314.432 149.102 314.529 148.832C314.94 147.709 315.392 146.602 315.415 145.381C315.484 144.624 315.747 143.925 315.987 143.214C316.09 142.904 316.221 142.578 316.627 142.566C316.959 142.555 317.176 142.801 317.239 143.059C317.462 144.097 318.274 144.728 318.903 145.49Z" fill="#F5C976"/>
<path d="M201.001 199.362C200.846 198.262 199.823 198.198 199.108 197.854C193.905 195.384 189.033 192.443 184.533 188.796C179.908 185.041 176.008 180.696 172.812 175.714C168.666 169.247 166.053 162.167 164.675 154.594C163.56 148.46 162.811 142.291 163.04 136.071C163.383 126.508 165.133 117.215 169.575 108.627C174.744 98.6406 182.218 90.9241 192.332 85.8619C197.181 83.4369 202.196 81.4304 207.267 79.5443C207.765 79.3608 208.234 79.1659 208.64 78.8276C209.692 80.1347 209.526 81.6425 209.366 83.156C205.901 89.9208 203.088 96.9494 201.064 104.282C200.074 107.871 199.4 111.494 199.308 115.26C199.182 120.368 201.418 124.135 205.221 127.185C208.142 129.524 211.51 131.112 214.838 132.751C215.433 133.044 216.084 133.245 216.536 133.778C217.325 136.587 217.497 139.499 217.92 142.366C218.069 143.363 218.08 144.315 219.275 144.791C220.104 145.117 219.732 145.937 219.544 146.556C218.652 149.423 217.668 152.261 216.691 155.098C213.969 162.981 211.264 170.864 208.571 178.752C206.381 185.156 204.203 191.56 201.984 197.946C201.796 198.491 201.778 199.207 201.001 199.362Z" fill="url(#paint1_linear)"/>
<path d="M238.407 41.5924C237.801 40.9503 237.818 40.1305 237.789 39.0355C236.36 40.1879 235.274 41.4032 234.033 42.4294C225.994 49.0854 217.868 55.6094 208.748 60.7748C203.168 63.9336 197.353 66.479 190.966 67.2816C185.002 68.0327 179.422 66.7198 174.567 63.0393C169.152 58.9345 167.477 53.2131 169.501 46.5686C171.359 40.4516 174.847 35.2633 178.541 30.1725C180.634 27.2888 182.761 24.4166 185.34 21.9686C191.08 16.5281 197.439 11.9303 204.369 8.10644C209.881 5.06225 215.598 2.5455 221.745 1.14667C229.584 -0.63627 237.361 -0.44135 244.942 2.44231C247.716 3.49717 250.254 5.03359 252.061 7.49301C254.771 11.1793 254.348 15.1637 252.987 19.171C251.432 23.7516 248.63 27.564 245.526 31.1929C245.022 31.7834 244.153 32.2592 244.382 33.2854C243.65 33.7326 243.056 33.251 242.598 32.8555C241.592 31.9783 241.049 32.3968 240.517 33.3542C239.253 35.6302 238.327 37.9864 238.647 40.6637C238.681 41.0019 238.681 41.3344 238.407 41.5924Z" fill="url(#paint2_linear)"/>
<path d="M201.001 199.362C202.51 195.057 204.049 190.757 205.529 186.44C210.087 173.157 214.627 159.862 219.166 146.574C219.424 145.817 220.047 144.859 218.4 144.94C217.788 144.968 217.863 144.389 217.806 143.982C217.325 140.588 216.851 137.2 216.37 133.806C215.644 132.946 215.633 131.857 215.496 130.831C213.763 117.892 211.911 104.97 210.109 92.042C209.698 89.0781 209.069 86.1256 209.063 83.1101C209.263 81.6482 208.892 80.2379 208.646 78.8219C208.457 77.3256 208.297 75.8236 208.074 74.333C208.005 73.8801 208.034 73.519 208.291 73.1349C209.315 71.6042 210.321 70.0563 211.333 68.5198C213.106 68.1873 214.89 68.4683 216.668 68.3765C217.131 68.3536 217.457 68.56 217.343 69.0301C216.908 70.7442 216.942 72.6074 215.816 74.1095C215.296 74.4018 214.712 74.3617 214.146 74.3904C212.66 74.4649 212.511 74.6369 212.763 76.1274C213.426 80.0774 214.015 84.0446 214.638 88.0003C217.348 105.199 220.03 122.398 222.729 139.597C223.095 141.924 223.118 141.93 225.416 141.93C254.251 141.93 283.086 141.93 311.921 141.93C314.231 141.93 314.174 141.913 314.569 139.608C315.85 132.132 316.987 124.634 318.171 117.146C318.24 116.722 318.285 116.292 318.583 115.943C320.172 115.364 321.779 115.461 323.391 115.851C323.992 116.367 323.86 117.049 323.774 117.708C322.94 124.272 322.008 130.819 321.139 137.378C321.053 138.043 320.881 138.679 320.641 139.298C319.995 140.961 320.109 142.75 319.761 144.458C319.658 144.974 319.698 145.559 318.909 145.484C317.245 145.364 317.25 143.862 316.684 142.52C316.244 143.655 315.861 144.527 315.775 145.501C315.392 146.648 315.158 147.846 314.643 148.947C314.735 149.13 314.826 149.314 314.918 149.497C314.071 150.116 314.329 151.177 313.917 151.968C313.865 152.008 313.814 152.048 313.757 152.089C290.205 152.094 266.647 152.1 243.096 152.106C236.909 152.106 230.722 152.129 224.536 152.083C223.409 152.077 222.929 152.358 222.591 153.551C220.133 162.236 217.56 170.881 215.027 179.544C212.282 188.934 209.566 198.336 206.787 207.715C206.353 209.188 207.102 209.085 208.102 209.08C251.021 209.062 293.944 209.062 336.863 209.08C337.48 209.08 338.355 208.632 338.658 209.687C337.194 212.193 335.708 214.692 334.272 217.215C333.941 217.799 333.523 218.023 332.894 217.96C332.66 217.937 332.42 217.954 332.18 217.954C289.919 217.954 247.664 217.948 205.404 217.983C204.111 217.983 203.334 217.604 202.648 216.515C201.361 214.457 199.96 212.468 198.514 210.519C197.862 209.641 197.822 208.867 198.159 207.876C199.114 205.049 200.269 202.275 201.001 199.362Z" fill="#E4AC51"/>
<path d="M238.407 41.5923C237.721 38.141 238.899 35.1599 240.734 32.3336C241.169 31.6628 241.489 31.3418 242.186 32.11C242.747 32.7292 243.473 33.2279 244.376 33.2853C248.001 34.3974 250.563 32.9183 251.335 29.2665C253.273 20.0823 262.816 16.4993 270.604 22.1233C271.914 23.0692 272.857 23.3157 274.475 22.7711C279.976 20.9022 285.894 23.8145 288.141 29.2206C288.192 29.3525 288.295 29.4614 288.369 29.5818C288.552 30.6538 288.753 31.7259 288.913 32.8037C288.97 33.2107 289.079 33.4228 289.519 33.612C295.322 36.0772 297.432 42.435 294.27 47.9271C293.436 49.3776 292.555 50.7879 292.704 52.5651C292.812 52.7887 292.932 53.0122 292.99 53.2587C293.138 55.6952 293.11 58.1203 292.343 60.4708C292.132 61.1243 292.052 61.9155 291.148 62.0645C290.439 61.7951 290.622 61.13 290.525 60.6026C289.656 55.6952 288.45 50.9082 285.716 46.6544C284.533 44.8084 283.195 43.0885 281.502 41.6611C280.628 40.9215 279.896 40.9387 278.952 41.5521C275.779 43.6045 272.319 44.8256 268.494 44.8371C266.859 44.8428 265.287 44.4358 263.76 43.9141C263.011 43.6561 262.536 43.7994 262.056 44.4415C260.381 46.6716 258.179 48.2195 255.589 49.1826C254.531 49.5725 253.851 50.2432 253.393 51.258C252.467 53.3103 251.81 55.4373 251.312 57.6272C251.158 58.3094 251.118 59.0719 250.352 59.4331C249.482 59.1923 249.528 58.384 249.322 57.7476C249.162 57.2603 249.156 56.7272 248.991 56.2399C248.785 55.0016 248.276 53.8091 248.396 52.5192C247.961 50.8337 247.087 49.6699 245.366 48.9247C242.055 47.4972 239.911 44.8084 238.407 41.5923Z" fill="#583022"/>
<path d="M250.357 59.2956C251.141 57.8451 251.066 56.1482 251.69 54.6519C251.981 53.9525 252.193 53.2187 252.439 52.4963C253.091 50.593 254.063 49.177 256.19 48.4718C258.648 47.6577 260.661 45.9837 262.085 43.7364C262.376 43.272 262.634 43.0829 263.223 43.3179C268.86 45.6053 274.041 44.2524 278.895 41.1107C280.062 40.354 280.771 40.4858 281.72 41.3171C285.682 44.8027 287.981 49.2744 289.467 54.2277C290.216 56.7329 290.857 59.2726 290.937 61.9098C291.423 62.1792 292.029 62.0359 292.498 62.42C293.887 63.5551 295.746 62.3971 296.163 60.7059C296.598 58.9229 295.666 57.3693 293.813 57.0597C292.944 56.9164 292.744 56.561 292.772 55.7583C292.801 54.8697 292.898 53.9639 292.704 53.0753C292.704 52.9034 292.704 52.7256 292.704 52.5536C292.932 52.611 293.161 52.7084 293.39 52.7199C297.827 52.9091 300.48 56.3316 299.714 60.8434C299.411 62.6321 298.719 64.1972 297.33 65.4126C295.9 66.6624 294.213 66.9375 292.561 66.2095C291.372 65.682 291.189 65.9916 291.194 67.0637C291.194 67.4363 291.063 67.8089 290.988 68.1816C290.691 68.5542 290.262 68.6402 289.833 68.6402C284.556 68.6517 279.284 68.8065 274.012 68.5657C273.509 68.4568 273.223 68.0956 272.994 67.6656C272.794 67.293 272.628 66.8974 272.4 66.542C271.925 65.791 271.525 64.7705 270.507 64.8508C269.541 64.9253 269.358 65.9801 269.026 66.7484C268.712 67.4707 268.592 68.3306 267.631 68.56C264.115 68.8122 260.598 68.7033 257.087 68.6517C253.091 68.5944 249.122 69.1447 245.126 68.9613C244.422 68.9269 243.69 69.0415 243.061 68.5886C242.999 67.6312 243.782 67.8892 244.234 67.8605C245.749 67.7746 247.275 67.8376 248.796 67.8204C249.3 67.8147 249.831 67.9007 250.34 67.3675C245.966 68.7319 243.37 66.8114 241.809 62.9589C241.415 61.4741 241.094 59.9892 241.786 58.4987C242.164 57.1285 242.713 55.8443 243.565 54.692C244.777 53.0581 246.561 52.7314 248.396 52.5078C248.939 53.6716 249.111 54.9213 249.277 56.1711C249.62 57.2202 249.065 57.2604 248.253 57.1572C246.646 56.9623 245.429 57.9025 245.126 59.4962C244.8 61.2046 245.634 62.8901 247.03 63.3487C248.333 63.7787 249.648 62.7525 249.974 61.0498C250.071 60.4708 249.9 59.8115 250.357 59.2956Z" fill="#F1A47A"/>
<path d="M215.827 73.9547C216.204 72.4011 216.553 70.836 216.965 69.2938C217.154 68.6002 216.879 68.497 216.285 68.5084C214.632 68.5371 212.98 68.5199 211.327 68.5256C212.768 67.8491 214.289 68.2848 215.764 68.2676C216.856 68.2562 217.445 67.9523 217.937 66.9376C219.092 64.5527 220.722 64.1686 222.946 65.6649C223.392 65.963 223.5 65.6821 223.746 65.4872C225.233 64.2833 226.016 64.2317 227.497 65.2693C227.703 65.4127 227.869 65.6305 228.063 65.3668C229.476 63.4291 230.831 64.5183 232.266 65.47C232.529 64.7878 232.529 63.9508 233.255 63.5495C233.964 63.1539 234.742 63.4233 235.491 63.3889C236.6 63.5724 237.126 64.3807 237.521 65.3095C237.795 65.9515 237.944 66.6452 238.218 67.293C238.304 67.7173 238.315 68.153 238.418 68.5715C238.578 70.3487 238.836 72.1202 238.876 73.9088C238.876 74.6369 238.664 75.3191 238.475 76.0071C238.27 76.7638 237.995 77.4919 237.115 77.6696C236.148 77.8703 235.314 77.5607 234.685 76.8154C233.998 76.0014 233.615 75.021 233.307 74.012C233.272 73.3298 233.158 72.6533 233.106 71.9711C233.221 72.682 233.267 73.3929 233.255 74.1038C233.095 75.6688 233.026 77.2397 232.54 78.7532C232.369 79.2978 232.203 79.8482 231.894 80.3355C230.974 81.8031 229.481 81.8375 228.618 80.3297C227.543 78.4493 227.309 76.3797 227.532 74.2471C227.497 73.9547 227.6 73.6509 227.474 73.3585C227.583 73.6279 227.503 73.9031 227.526 74.184C227.4 75.9727 226.885 77.641 226.039 79.2118C225.576 80.0717 224.89 80.6221 223.872 80.5533C222.797 80.4788 222.363 79.6819 222.071 78.7818C221.591 77.3085 221.734 75.7663 221.568 74.2586C221.711 73.7827 221.808 73.2897 221.871 73.1177C221.871 73.3241 221.614 73.7885 221.534 74.3101C221.173 75.9612 220.487 77.4461 219.241 78.6156C218.555 79.2577 217.743 79.6647 216.793 79.2863C215.85 78.908 215.478 78.0709 215.473 77.125C215.467 76.0587 215.147 74.9408 215.827 73.9547Z" fill="#F1A47A"/>
<path d="M238.098 67.3848C237.641 67.1841 237.601 66.7542 237.498 66.3357C237.201 65.1031 236.583 64.0769 235.491 63.3832C236.64 63.3316 237.298 62.4488 238.075 61.7952C239.339 60.7289 240.546 59.6052 241.781 58.5045C241.763 60.018 241.775 61.5372 242.124 63.022C243.016 64.3807 241.998 64.805 241.037 65.2521C240.014 65.9057 239.453 67.1956 238.098 67.3848Z" fill="#E8F6FC"/>
<path d="M238.67 73.9661C238.241 72.0799 238.104 70.1651 238.093 68.2331C239.539 67.4535 241.066 67.872 242.564 67.9178C242.73 67.9694 242.878 68.0612 242.998 68.1873C243.427 68.772 244.056 68.5198 244.582 68.4969C252.416 68.193 260.249 68.2159 268.088 68.2217C269.895 67.5509 271.708 67.4879 273.515 68.2217C279.335 68.2102 285.156 68.2045 290.983 68.193C299.908 68.2102 308.834 68.2274 317.759 68.2446C320.321 68.2503 322.888 68.2618 325.45 68.2274C326.153 68.2159 326.588 68.4281 326.931 69.0587C327.657 70.3945 328.383 71.7417 329.258 72.98C329.738 73.6622 329.269 74.1151 329.195 74.6712C328.743 78.0594 328.269 81.4475 327.806 84.8357C327.388 87.8971 326.971 90.9527 326.553 94.0141C326.45 94.3753 326.342 94.8339 325.901 94.7995C324.644 94.7078 323.306 95.0173 322.162 94.1918C321.785 93.4523 321.996 92.6955 322.116 91.9502C322.922 86.911 323.723 81.8718 324.489 76.8268C324.855 74.419 324.832 74.4132 322.328 74.4132C298.542 74.4132 274.761 74.4132 250.975 74.4132C247.55 74.4132 244.125 74.4247 240.7 74.4075C240.002 74.396 239.259 74.5222 238.67 73.9661Z" fill="#E4AC51"/>
<path d="M322.334 94.2664C323.397 94.341 324.478 94.1174 325.518 94.5187C326.01 94.7079 326.279 94.318 326.559 94.0085C326.565 94.6964 327.028 94.7767 327.588 94.9028C329.292 95.2984 331.013 95.6882 332.471 96.7603C334.124 97.9756 334.192 99.8503 332.574 101.106C332.271 101.341 332.22 101.478 332.357 101.765C332.837 102.774 332.551 103.823 332.546 104.861C332.094 105.113 332.003 105.463 332.185 105.944C332.62 107.091 332.254 108.1 331.551 109.012C331.208 109.453 331.059 109.826 331.253 110.428C331.917 112.486 331.425 113.902 329.538 114.848C327.674 115.782 325.673 116.361 323.529 116.052C321.899 116.046 320.275 116.046 318.646 116.04C317.525 116.183 316.656 115.725 316.261 114.71C315.867 113.695 316.507 112.904 317.216 112.239C317.879 111.62 318.703 111.259 319.532 110.921C320.59 110.829 321.585 110.147 322.557 110.387C321.733 110.278 320.715 110.307 319.732 110.107C318.783 110.003 317.879 109.728 317.056 109.269C315.472 108.387 315.398 106.873 316.879 105.761C317.971 104.941 319.297 104.775 320.595 104.557C321.47 104.597 322.356 104.505 323.231 104.718C322.379 104.534 321.493 104.632 320.647 104.419C320.464 104.374 320.693 104.431 320.504 104.402C319.28 104.184 318.102 103.812 317.039 103.158C316.273 102.688 315.701 102.023 315.861 101.048C316.01 100.131 316.747 99.7127 317.548 99.4949C318.789 99.1624 320.058 98.956 321.35 99.0362C322.059 99.0133 322.751 99.1738 323.454 99.2541C323.643 99.277 323.483 99.042 323.506 99.2311C323.511 99.2598 323.46 99.2656 323.363 99.2541C322.614 99.1337 321.876 98.9789 321.23 98.5375C320.595 98.1132 320.058 97.5915 319.755 96.8749C319.4 96.0379 319.326 95.2181 320.058 94.5359C320.727 93.8938 321.493 93.6817 322.334 94.2664Z" fill="#F1A47A"/>
<path d="M323.517 116.052C325.084 115.725 326.673 115.467 328.217 115.054C330.281 114.498 331.568 113.208 331.093 111.637C330.619 110.066 330.893 109.012 331.802 107.825C332.203 107.303 332.254 106.512 331.802 105.944C330.75 104.637 331.677 104.798 332.54 104.867C337.12 113.346 335.782 121.32 330.562 129.008C327.834 133.021 324.523 136.438 320.635 139.304C320.584 136.403 321.264 133.583 321.607 130.728C322.208 125.832 322.877 120.942 323.517 116.052Z" fill="#B73B37"/>
<path d="M305.769 191.038C304.534 192.724 302.807 193.83 301.109 194.948C298.462 196.691 295.74 198.33 292.652 199.167C290.92 199.637 289.296 200.687 287.386 200.308C287.06 200.245 286.871 200.503 286.62 200.606C284.762 201.369 282.818 201.736 280.828 201.931C278.746 202.137 276.682 202.492 274.601 202.728C270.604 203.169 266.676 202.917 262.759 202.212C261.844 202.045 261.044 201.764 260.066 202.183C258.408 202.894 256.79 201.965 255.258 201.535C251.043 200.348 246.761 199.431 242.793 197.356C239.636 195.705 236.554 194.019 233.781 191.778C232.746 190.941 231.94 190.041 231.751 188.602C231.626 187.638 231.22 186.67 230.734 185.815C229.133 182.983 229.636 180.094 230.333 177.182C230.373 177.015 230.551 176.884 230.665 176.734C231.237 175.978 231.317 176.712 231.54 177.021C231.431 177.938 231.511 178.924 231.185 179.75C230.282 182.003 231.271 183.895 232.243 185.718C232.981 187.105 233.81 188.493 234.953 189.622C235.399 189.937 235.777 190.321 236.103 190.757C236.446 191.095 236.675 191.52 236.96 191.904C237.87 192.408 239.002 193.515 239.625 193.274C240.523 192.93 241.506 192.489 242.427 192.076C245.2 190.837 248.059 189.788 250.878 188.636C251.255 188.481 251.512 188.613 251.81 188.751C252.061 188.94 252.244 188.716 252.456 188.647C252.793 188.539 253.159 188.166 253.462 188.636C253.828 189.204 253.211 189.335 252.953 189.616C251.204 191.21 249.048 191.938 246.807 192.437C245.686 192.683 244.519 192.735 243.65 193.624C243.587 193.692 243.484 193.727 243.427 193.801C243.044 194.3 241.998 193.624 242.009 194.346C242.026 195.051 243.13 194.736 243.576 195.212C244.422 196.112 245.457 196.702 246.641 197.029C248.745 197.608 250.832 198.256 252.953 198.726C253.685 198.886 254.411 199.001 255.137 199.242C257.133 199.901 259.214 200.205 261.278 200.583C263.148 200.927 264.944 200.778 266.773 200.773C267.351 200.773 267.911 200.778 268.431 201.082C268.769 201.277 269.169 201.472 269.512 201.254C270.804 200.429 272.034 201.122 273.269 201.386C273.68 201.478 274.121 201.81 274.469 201.472C275.647 200.337 277.077 200.738 278.392 200.882C279.324 200.979 280.107 201.174 280.902 200.457C281.251 200.142 281.983 199.855 282.337 200.016C284.201 200.841 285.625 199.362 287.232 199.058C290.697 198.399 293.847 196.679 297.021 195.08C298.862 194.151 300.772 193.434 302.27 191.898C301.658 191.342 300.857 191.909 300.348 191.365C300.491 191.164 300.703 191.009 300.932 191.021C302.544 191.118 304.162 190.665 305.769 191.038Z" fill="#E4AD51"/>
<path d="M318.017 166.954C317.239 169.465 316.255 171.873 314.632 173.977C311.99 177.405 308.279 178.466 304.214 178.695C302.933 178.77 301.646 178.701 300.366 178.695C298.462 178.46 296.489 178.638 294.694 177.806C294.145 177.554 293.184 177.537 293.539 176.459C299.159 172.762 305.609 170.898 311.681 168.215C313.551 167.39 315.432 166.581 317.25 165.653C318.44 165.045 318.211 165.739 318.108 166.427C318.194 166.627 318.234 166.816 318.017 166.954Z" fill="#6C8C2D"/>
<path d="M305.769 191.038C303.991 191.64 302.155 191.285 300.348 191.359C295.9 190.671 291.84 189.066 288.267 186.285C287.809 185.93 286.98 185.615 288.049 184.996C295.911 185.815 303.722 185.861 311.327 183.241C312.019 183.001 312.876 182.995 313.196 182.118C315.055 182.255 315.123 182.381 314.088 183.958C312.007 187.134 309.383 189.668 305.769 191.038Z" fill="#6C8C2D"/>
<path d="M313.202 182.123C313.322 182.433 314.512 182.611 313.208 183.081C306.764 185.408 300.114 186.263 293.31 185.833C291.995 185.752 290.685 185.609 289.364 185.603C288.827 185.603 288.307 185.592 288.049 185.001C290.674 182.725 293.767 181.43 297.152 180.988C302.567 180.277 307.925 180.747 313.202 182.123Z" fill="#5E7B23"/>
<path d="M228.389 170.136C228.103 168.181 227.817 166.226 227.537 164.265C227.429 163.514 227.377 162.758 227.251 162.007C227.086 160.998 227.469 160.671 228.486 160.699C232.426 160.826 236.36 160.889 240.3 160.975C240.717 160.986 241.209 160.894 241.226 161.554C240.082 166.696 235.068 170.646 229.864 170.509C229.344 170.497 228.812 170.537 228.389 170.136Z" fill="#D65855"/>
<path d="M251.798 164.116C250.34 165.051 248.516 164.77 247.001 165.549C246.749 165.676 246.406 165.429 246.223 165.922C245.954 166.633 245.651 166.444 245.514 165.796C245.463 165.555 245.383 165.291 245.068 165.435C244.925 165.498 244.725 165.756 244.765 165.842C245.12 166.69 244.422 166.49 244.022 166.679C242.884 167.223 241.786 167.837 240.671 168.427C240.597 167.51 240.826 166.765 241.78 166.421C244.005 165.211 246.429 164.466 248.739 163.445C251.867 162.064 255.223 161.198 258.648 161.043C260.352 160.963 261.879 160.373 263.468 160.023C265.647 159.541 267.78 159.788 269.924 159.885C272.451 160 274.955 160.482 277.494 160.419C277.666 160.608 277.666 160.797 277.5 160.986C277.025 161.296 276.545 161.296 276.07 160.98C275.424 160.654 274.933 161.181 274.366 161.273C273.703 161.382 273.091 161.926 272.359 161.554C271.565 161.456 270.753 161.427 269.975 161.256C268.414 160.917 267.042 161.64 265.601 161.961C264.926 162.11 264.406 162.293 263.914 161.496C263.668 161.095 262.862 160.894 262.365 161.106C261.77 161.364 262.21 162.035 262.142 162.608C260.775 162.322 259.42 163.274 258.008 162.465C257.562 162.213 257.007 162.838 257.013 163.428C257.019 163.698 256.818 163.767 256.653 163.784C256.184 163.83 255.703 163.824 255.235 163.841C254.794 163.572 254.851 163.285 255.177 162.952C255.492 162.631 255.904 162.419 256.235 162.041C255.503 162.345 255.097 163.056 254.371 163.268C254.28 163.365 254.182 163.457 254.091 163.554C253.325 163.738 252.479 163.595 251.798 164.116Z" fill="#E5AD52"/>
<path d="M241.786 166.415C241.415 167.086 241.049 167.751 240.677 168.422C239.225 169.884 237.624 171.145 235.805 172.12C234.422 172.716 233.244 173.925 231.534 173.541C228.492 173.736 228.492 173.736 228.384 170.566C228.378 170.423 228.389 170.285 228.389 170.142C234.365 170.543 238.367 167.803 240.694 162.385C240.82 162.093 241.049 161.84 241.226 161.565C241.758 163.142 242.009 164.753 241.786 166.415Z" fill="#B73B37"/>
<path d="M274.812 177.692C274.99 177.291 274.447 176.104 275.664 176.809C275.704 176.832 275.968 176.591 276.013 176.442C276.556 174.659 277.866 173.914 279.547 173.306C280.462 172.974 281.365 172.171 282.149 171.443C284.321 169.425 286.952 168.233 289.662 167.212C291.148 166.65 292.258 165.492 293.71 164.925C294.105 164.77 294.493 164.569 294.899 164.478C295.517 164.34 295.717 164.839 295.906 165.28C296.112 165.762 295.786 165.928 295.408 166.117C292.95 167.367 290.565 168.737 288.232 170.222C287.186 170.887 285.979 171.89 284.996 172.011C283.161 172.24 282.354 174 280.656 174.195C279.644 174.309 279.232 175.376 278.501 175.955C277.386 176.843 276.105 177.193 274.812 177.692Z" fill="#E5AE52"/>
<path d="M250.111 167.579C251.026 166.954 251.701 168.066 252.53 167.866C253.651 167.596 254.457 168.439 255.189 168.972C256.435 169.872 257.699 170.6 259.128 171.173C260.638 171.775 261.936 172.87 263.034 174.074C264.292 175.456 266.144 175.943 267.419 177.256C267.682 177.526 267.94 177.806 268.157 178.116C268.483 178.575 268.151 178.942 267.9 179.263C267.608 179.635 267.276 179.343 267.019 179.171C264.543 177.485 262.142 175.657 259.569 174.132C258.402 173.438 257.865 171.741 256.149 171.947C254.857 169.7 251.844 169.981 250.38 167.98C250.3 167.871 250.231 167.751 250.111 167.579Z" fill="#E5AD52"/>
<path d="M293.539 176.465C293.681 177.399 294.539 177.325 295.145 177.56C296.821 178.219 298.639 178.271 300.366 178.701C298.913 178.557 297.347 178.563 296.049 178.873C294.282 179.297 292.406 178.804 290.748 179.664C290.662 179.71 290.537 179.801 290.497 179.773C288.918 178.689 287.415 180.226 285.854 179.899C284.744 179.67 283.727 180.151 282.715 180.484C281.388 180.919 280.079 181.401 278.655 181.023C278.352 181.126 278.295 180.982 278.358 180.719C278.838 180.025 279.867 179.188 280.233 179.389C281.217 179.922 281.045 178.311 281.977 178.752C282.657 179.073 283.715 178.959 284.476 178.672C285.351 178.345 286.265 178.575 287.077 178.219C289.147 177.313 291.503 177.497 293.539 176.465Z" fill="#E5AE52"/>
<path d="M280.645 186.738C282.537 187.208 284.047 188.195 285.476 189.576C286.546 190.608 287.638 191.829 289.176 192.288C290.085 192.557 290.491 193.331 291.034 193.956C291.354 194.323 291.354 194.908 291.005 195.28C290.594 195.716 290.239 195.257 289.908 195.034C287.152 193.159 284.367 191.33 281.668 189.381C279.61 187.896 277.694 186.228 275.178 185.506C274.744 185.38 274.435 184.818 274.069 184.457C274.001 183.729 274.664 184.113 274.927 183.883C275.116 183.883 275.304 183.883 275.493 183.889C276.814 184.273 277.974 185.024 279.204 185.603C279.301 185.701 279.392 185.792 279.49 185.89C279.833 186.234 280.101 186.675 280.645 186.738Z" fill="#E5AD52"/>
<path d="M251.032 182.146C250.34 182.095 249.465 181.82 248.693 181.384C247.927 180.954 247.447 180.34 248.328 179.458C248.751 179.033 249.031 178.449 249.34 177.915C250.294 176.253 251.175 176.018 252.816 177.01C254.108 177.789 255.16 179.435 254.926 180.317C254.749 181 252.456 182.141 251.032 182.146Z" fill="#F9E3C0"/>
<path d="M236.394 183.029C235.234 183.029 234.204 182.192 234.199 181.252C234.193 180.037 235.039 179.251 236.326 179.28C237.515 179.303 238.882 180.467 238.945 181.504C238.996 182.33 237.812 183.035 236.394 183.029Z" fill="#F9E3BF"/>
<path d="M252.948 189.611C252.993 189.295 253.514 189.123 253.313 188.802C253.022 188.332 252.685 188.791 252.381 188.888C252.136 188.968 251.953 188.974 251.804 188.745C253.085 187.81 254.468 187.122 256.081 187.014C256.698 187.26 256.59 186.767 256.653 186.446C257.59 185.466 258.911 185.242 260.083 184.726C260.953 184.371 261.038 185.047 261.221 185.592C260.261 185.448 259.74 185.959 259.226 186.721C258.219 188.206 256.435 188.189 254.943 188.739C254.897 188.653 254.869 188.556 254.909 188.47C255.063 188.109 254.932 187.925 254.56 187.937C254.383 187.942 254.125 187.937 254.194 188.258C254.354 188.131 254.537 188.086 254.691 188.24C254.852 188.401 254.789 188.579 254.657 188.733C254.223 189.284 253.605 189.49 252.948 189.611Z" fill="#E7B257"/>
<path d="M277.506 160.98C277.506 160.791 277.506 160.602 277.5 160.407C279.021 160.35 280.519 160.367 281.874 161.233C282.103 161.382 282.423 161.525 282.675 161.491C284.441 161.238 286.088 161.766 287.609 162.253C286.997 162.614 286.248 162.786 285.711 162.442C284.945 161.961 284.11 161.966 283.389 162.236C282.297 162.649 281.337 162.047 280.319 162.098C280.233 162.104 280.067 162.064 280.061 162.024C279.758 160.327 278.415 161.181 277.506 160.98Z" fill="#E8B258"/>
<path d="M250.643 175.588C249.711 175.519 248.939 175.187 249.031 174.178C249.111 173.352 249.608 172.612 250.62 172.733C251.61 172.853 252.387 173.587 252.416 174.458C252.45 175.416 251.404 175.49 250.643 175.588Z" fill="#F9E2BE"/>
<path d="M231.534 173.541C232.958 173.065 234.382 172.595 235.805 172.12C234.004 173.415 233.118 175.513 231.545 177.004C231.277 176.832 231.094 176.402 230.671 176.717C230.711 176.585 230.722 176.356 230.802 176.333C232.478 175.771 232.02 174.665 231.534 173.541Z" fill="#E4AC52"/>
<path d="M263.177 194.977C262.879 195.871 262.147 196.072 261.473 196.054C260.792 196.037 260.009 195.837 260.095 194.822C260.158 194.031 260.598 193.612 261.381 193.618C262.319 193.624 262.708 194.369 263.177 194.977Z" fill="#F9E2BC"/>
<path d="M277.792 181.304C277.008 181.905 275.87 181.166 275.064 181.991C275.482 181.298 274.79 179.761 276.597 180.266C276.962 180.369 277.037 179.83 277.346 179.698C277.803 179.498 277.929 179.572 278.083 180.157C277.471 180.409 277.449 180.811 277.792 181.304Z" fill="#F2C36E"/>
<path d="M279.215 185.597C278.947 185.603 278.512 185.712 278.432 185.592C277.952 184.841 277.391 184.99 276.819 185.454C276.642 185.018 277.094 184.738 276.802 184.376C275.979 185.276 275.899 184.187 275.504 183.883C277.26 183.322 278.18 184.594 279.215 185.597Z" fill="#EDBB63"/>
<path d="M314.328 152.685C314.609 154.64 315.604 156.411 315.775 158.395C315.889 158.699 315.747 158.745 315.495 158.682C315.02 157.042 314.551 155.402 314.071 153.763C313.911 153.218 313.705 152.679 313.751 152.094L313.762 152.1C314.323 151.934 314.088 152.536 314.328 152.685Z" fill="#EFDCAC"/>
<path d="M318.016 166.954C318.045 166.782 318.079 166.604 318.108 166.432C319.069 168.427 319.595 170.56 320.046 172.716C319.017 171.265 318.977 169.465 318.337 167.877C318.222 167.573 318.125 167.264 318.016 166.954Z" fill="#F2D28E"/>
<path d="M272.365 161.554C273.606 161.37 274.692 160.206 276.076 160.975C275.184 161.02 274.681 161.943 273.703 161.949C273.154 161.961 272.731 161.978 272.365 161.554Z" fill="#F1C26C"/>
<path d="M261.227 185.598C260.849 185.305 260.724 184.68 260.089 184.732C260.318 184.577 260.558 184.273 260.775 184.29C261.295 184.331 261.959 183.31 262.296 184.325C262.536 185.053 262.01 185.529 261.227 185.598Z" fill="#F1C26C"/>
<path d="M254.371 163.262C255.052 162.396 255.692 161.462 257.036 161.622C256.79 162.712 255.114 162.528 255.234 163.835C254.788 163.887 254.668 163.44 254.371 163.262Z" fill="#F2C46E"/>
<path d="M291.857 163.222C291.017 164.403 290.028 164.443 288.918 163.698C289.948 163.898 290.72 162.465 291.857 163.222Z" fill="#ECB961"/>
<path d="M274.933 183.878C274.647 184.067 274.361 184.262 274.075 184.451C273.509 184.376 273.069 184.124 273.034 183.505C273.023 183.247 273.332 183.235 273.549 183.144C274.349 182.817 274.618 183.373 274.933 183.878Z" fill="#EDBB63"/>
<path d="M254.663 188.739C254.646 188.647 254.64 188.55 254.606 188.464C254.343 187.805 254.051 189.37 253.822 188.458C253.759 188.206 253.759 187.839 254.062 187.713C254.548 187.518 255.229 187.392 255.532 187.736C256.047 188.315 255.069 188.344 254.949 188.745C254.851 188.94 254.754 188.94 254.663 188.739Z" fill="#E4AD51"/>
<path d="M251.798 164.116C252.307 162.907 253.228 163.337 254.085 163.549C253.662 163.83 253.199 164.065 252.822 164.403C252.284 164.89 252.113 164.311 251.798 164.116Z" fill="#F0BF69"/>
<path d="M316.633 161.255C317.193 162.178 317.456 163.187 317.599 164.512C316.713 163.526 316.856 162.396 316.353 161.542C316.45 161.456 316.456 161.273 316.633 161.255Z" fill="#F1D69A"/>
<path d="M314.329 152.685C314.14 152.49 313.951 152.289 313.762 152.094C314.106 151.211 313.711 150.002 314.906 149.503C314.409 150.506 314.26 151.573 314.329 152.685Z" fill="#EDCD8B"/>
<path d="M277.791 181.304C277.563 180.788 277.122 181.413 276.745 181.034C277.345 180.908 277.122 179.779 278.077 180.157C278.077 180.386 278.123 180.598 278.352 180.719C278.449 180.822 278.552 180.92 278.649 181.023C278.443 181.355 278.106 181.298 277.791 181.304Z" fill="#EAB75E"/>
<path d="M314.632 148.953C314.797 147.737 315.152 146.579 315.764 145.507C315.615 146.728 315.495 147.967 314.632 148.953Z" fill="#EECE8C"/>
<path d="M316.633 161.255C316.536 161.353 316.444 161.45 316.347 161.548C316.255 160.533 315.815 159.627 315.495 158.681C315.586 158.584 315.684 158.492 315.775 158.395C316.29 159.278 316.621 160.218 316.633 161.255Z" fill="#F0D8A1"/>
<path d="M320.338 174.143C321.07 174.963 321.219 175.961 321.196 177.004C320.595 176.15 320.51 175.135 320.338 174.143Z" fill="#F3CE84"/>
<path d="M280.645 186.738C279.999 187.203 279.713 186.991 279.501 185.884C280.021 185.982 280.553 186.062 280.645 186.738Z" fill="#EAB65D"/>
<path d="M256.653 186.452C257.019 186.876 257.184 187.432 256.67 187.713C256.264 187.931 256.144 187.381 256.081 187.019C256.275 186.824 256.464 186.641 256.653 186.452Z" fill="#E4AD51"/>
<path d="M321.19 177.01C321.802 177.657 321.968 178.454 322.065 179.647C321.39 178.638 321.321 177.812 321.19 177.01Z" fill="#F3CE84"/>
<path d="M236.103 190.751C235.617 190.476 234.976 190.362 234.953 189.616C236.097 189.215 235.834 190.253 236.103 190.751Z" fill="#EDBA62"/>
<path d="M236.96 191.892C236.446 191.686 236 191.422 236.103 190.746C236.84 190.792 236.983 191.279 236.96 191.892Z" fill="#ECB960"/>
<path d="M320.046 172.716C320.527 173.117 320.264 173.667 320.332 174.149C319.858 173.748 320.115 173.197 320.046 172.716Z" fill="#F2D28E"/>
<path d="M209.057 83.1102C209.915 84.916 209.783 86.9054 210.081 88.8087C210.996 94.6735 211.768 100.555 212.585 106.432C213.483 112.921 214.363 119.417 215.255 125.906C215.616 128.538 215.999 131.169 216.365 133.801C212.145 132.023 208.085 129.954 204.489 127.087C199.44 123.063 198.142 117.668 199.12 111.568C200.738 101.496 204.374 92.1166 209.057 83.1102Z" fill="#B73B37"/>
<path d="M322.334 94.2663C321.304 94.2033 320.144 94.2147 319.869 95.3957C319.572 96.6856 320.435 97.6086 321.493 98.2851C321.739 98.6692 321.802 99.0476 321.476 99.4202C320.281 99.2826 319.12 99.5865 317.959 99.7527C317.165 99.8674 316.284 100.171 316.141 101.1C315.998 102 316.627 102.585 317.405 102.957C318.428 103.45 319.48 103.875 320.624 104.012C320.858 104.299 320.858 104.586 320.618 104.866C319.663 105.279 318.588 105.193 317.639 105.692C316.816 106.128 316.147 106.695 316.13 107.59C316.113 108.507 316.942 108.908 317.725 109.178C318.394 109.407 319.034 109.739 319.766 109.739C320.207 110.318 319.904 110.754 319.492 111.167C318.794 111.626 318.022 112.004 317.405 112.554C315.844 113.947 316.147 115.128 318.171 115.765C318.337 115.816 318.485 115.948 318.64 116.04C318.485 119.124 317.799 122.134 317.342 125.178C316.553 130.372 315.701 135.555 314.929 140.755C314.769 141.844 314.489 142.406 313.191 142.4C283.504 142.36 253.822 142.36 224.135 142.406C222.889 142.406 222.591 141.838 222.449 140.875C221.665 135.773 220.91 130.67 220.11 125.574C219.189 119.824 218.223 114.085 217.32 108.329C216.325 102.017 215.387 95.6938 214.398 89.3819C213.689 84.8471 212.957 80.3124 212.196 75.7834C211.928 74.1782 212.065 73.9546 213.689 73.9489C214.404 73.9489 215.118 73.9489 215.827 73.9489C215.827 75.0439 215.81 76.1388 215.839 77.2338C215.856 77.9906 216.153 78.6671 216.862 78.9881C217.588 79.3149 218.275 79.0053 218.829 78.5065C220.184 77.2854 220.853 75.6859 221.259 73.9489C221.448 73.7883 221.637 73.7597 221.831 73.9489C222.266 75.4624 221.928 77.0733 222.397 78.5868C222.626 79.3321 222.855 80.106 223.758 80.2207C224.719 80.3411 225.336 79.8308 225.771 78.9652C226.571 77.3772 227.006 75.6917 227.257 73.9489C227.446 73.7769 227.635 73.7769 227.823 73.9546C227.812 75.9898 227.875 78.0135 228.795 79.8939C229.093 80.4959 229.396 81.0749 230.208 81.1035C231.1 81.1322 231.448 80.513 231.729 79.8538C232.249 78.6384 232.592 77.3542 232.661 76.0356C232.695 75.319 232.786 74.6311 232.964 73.9489C233.152 73.7769 233.347 73.7769 233.541 73.9431C233.919 74.6999 234.279 75.4623 234.679 76.2076C235.159 77.0962 235.943 77.4574 236.926 77.3714C237.932 77.2797 237.978 76.4541 238.15 75.7203C238.293 75.1241 238.499 74.5508 238.676 73.9661C267.162 73.9603 295.654 73.9603 324.14 73.9317C325.141 73.9317 325.416 74.0979 325.233 75.1814C324.249 81.0118 323.351 86.8594 322.442 92.707C322.351 93.2172 322.362 93.7446 322.334 94.2663Z" fill="#F5C976"/>
<path d="M250.357 59.2956C250.392 60.3332 250.506 61.3709 249.906 62.334C249.345 63.2284 248.676 64.008 247.567 63.8934C246.389 63.773 245.44 63.1768 244.994 61.9557C244.331 60.1498 244.628 58.6191 245.892 57.398C246.595 56.7158 247.373 56.3833 248.316 56.8018C248.996 57.0999 249.282 56.905 249.265 56.1826C249.854 57.14 249.442 58.4529 250.357 59.2956Z" fill="#E38459"/>
<path d="M292.698 53.0869C292.984 53.3448 292.927 53.6945 292.927 54.0213C292.932 55.3972 292.481 56.8591 294.819 56.9623C296.094 57.0196 296.809 58.837 296.632 60.425C296.483 61.7837 295.299 63.1023 294.042 63.3201C293.698 63.3774 293.378 63.3144 293.081 63.1481C292.366 62.7411 291.651 62.3283 290.937 61.9213C291.669 61.9041 291.64 61.2735 291.812 60.8148C292.755 58.3095 292.572 55.6839 292.698 53.0869Z" fill="#E38459"/>
<path d="M264.143 60.0122C264.143 61.3365 263.44 62.2251 262.411 62.2022C261.238 62.1735 260.158 60.8205 260.123 59.3357C260.095 58.1375 260.907 57.1343 261.907 57.1343C263.068 57.14 264.149 58.5274 264.143 60.0122Z" fill="#5A3223"/>
<path d="M282.114 59.3644C282.12 60.918 281.136 62.2079 279.924 62.2366C278.907 62.2595 278.112 61.325 278.1 60.1039C278.089 58.6993 279.21 57.2718 280.365 57.226C281.422 57.1801 282.114 58.0228 282.114 59.3644Z" fill="#5A3123"/>
<path d="M273.514 68.2217C271.708 68.2217 269.895 68.2217 268.088 68.2217C268.448 67.3045 268.74 66.3471 269.192 65.4757C269.975 63.9564 270.936 63.8705 271.976 65.2292C272.657 66.1235 273.246 67.0981 273.514 68.2217Z" fill="#E38459"/>
<path d="M240.688 65.1375C240.826 64.9598 240.974 64.6215 241.106 64.633C242.45 64.7132 242.227 63.8418 242.118 63.0278C242.673 63.9106 243.119 64.8852 243.799 65.6534C245.429 67.488 247.476 67.8377 249.9 66.886C250.186 66.7714 250.54 66.393 250.775 66.7427C250.963 67.0121 250.952 67.4765 250.912 67.8377C250.86 68.2791 250.437 68.2332 250.117 68.2332C247.744 68.2275 245.366 68.2103 242.993 68.1989L242.976 68.2218C242.633 67.9294 242.735 67.551 242.758 67.1841C242.85 65.4643 242.735 65.3439 241.072 65.2865C240.934 65.2693 240.809 65.2177 240.688 65.1375Z" fill="#E8F2F5"/>
<path d="M258.608 48.9992C259.489 46.9812 263.074 46.5226 264.149 47.5373C264.515 47.887 265.029 48.1794 264.749 48.8272C264.423 49.5839 263.891 49.1654 263.428 49.0336C261.976 48.6323 260.547 48.5405 259.174 49.303C258.791 49.561 258.591 49.475 258.608 48.9992Z" fill="#8B6142"/>
<path d="M283.898 50.3007C282.183 49.1426 280.696 49.177 279.152 49.7618C278.769 49.9051 278.318 49.8994 277.9 49.928C277.666 49.9452 277.414 49.9108 277.294 49.6586C277.151 49.349 277.323 49.1254 277.511 48.9019C279.021 47.1017 282.795 47.7209 283.898 50.3007Z" fill="#8D6243"/>
<path d="M258.608 48.9993C258.728 49.2229 258.923 49.3146 259.174 49.3089C258.963 49.693 258.597 49.8593 258.208 50.037C257.945 49.521 258.294 49.263 258.608 48.9993Z" fill="#A4714F"/>
<path d="M240.688 65.1374C242.713 64.4667 243.484 65.1317 243.136 67.2471C243.084 67.5682 243.033 67.8892 242.981 68.2102C241.352 68.216 239.722 68.2274 238.092 68.2332C237.652 67.9465 238.03 67.6656 238.098 67.3847C238.962 66.6337 239.825 65.8827 240.688 65.1374Z" fill="#E38A61"/>
<path d="M233.535 73.9489C233.341 73.9489 233.152 73.9489 232.958 73.9547C232.958 73.1979 232.958 72.4412 232.958 71.415C233.444 72.3838 233.581 73.1463 233.535 73.9489Z" fill="#E7AB5A"/>
<path d="M221.831 73.9547C221.642 73.9547 221.448 73.9547 221.259 73.9547C221.453 73.4731 221.648 72.9973 221.837 72.5157C222.094 73.0145 222.271 73.496 221.831 73.9547Z" fill="#EAA964"/>
<path d="M227.812 73.9604C227.623 73.9604 227.435 73.9547 227.246 73.9547C227.269 73.5534 227.286 73.1463 227.309 72.6877C228.012 73.003 227.755 73.5362 227.812 73.9604Z" fill="#EAA965"/>
<path d="M319.486 111.167C319.578 110.691 319.669 110.215 319.761 109.74C320.836 109.889 321.91 110.038 322.985 110.187C321.785 110.594 320.733 111.31 319.486 111.167Z" fill="#E7AD58"/>
<path d="M320.612 104.872C320.612 104.586 320.618 104.305 320.618 104.018C321.522 104.374 322.574 104.15 323.757 104.872C322.499 104.872 321.556 104.872 320.612 104.872Z" fill="#E8AA5D"/>
<path d="M321.476 99.426C321.482 99.0476 321.487 98.6693 321.493 98.2909C322.162 98.5947 322.831 98.8929 323.5 99.1967C323.494 99.2712 323.483 99.3515 323.477 99.426C322.808 99.426 322.139 99.426 321.476 99.426Z" fill="#E6AC58"/>
<path d="M230.831 161.582C232.397 161.324 233.976 161.812 235.588 161.886C237.206 161.961 237.503 162.758 236.554 164.122C235.336 165.871 233.896 167.315 231.648 167.671C230.007 167.934 229.327 167.527 228.927 165.871C228.647 164.718 228.378 163.566 228.115 162.414C227.96 161.743 227.806 161.124 228.932 161.462C229.504 161.634 230.156 161.548 230.831 161.582Z" fill="#E26F71"/>
<path d="M230.797 165.561C230.019 165.567 228.658 163.572 229.041 162.482C229.19 162.058 229.562 162.098 229.87 162.138C231.168 162.31 232.472 162.477 233.753 162.74C234.513 162.901 234.753 163.446 234.222 164.105C233.438 165.079 232.42 165.601 230.797 165.561Z" fill="#D65855"/>
<path d="M244.245 101.037C244.382 102.43 244.525 103.823 244.656 105.216C244.845 107.24 244.988 109.269 245.205 111.293C245.314 112.337 245.108 112.916 243.885 112.875C241.94 112.812 239.996 112.835 238.052 112.881C237.08 112.904 236.829 112.64 237.366 111.763C239.568 108.174 241.752 104.574 243.942 100.98C244.045 100.997 244.148 101.02 244.245 101.037Z" fill="#F5C975"/>
<path d="M298.93 101.358C298.713 105.193 298.524 108.633 298.33 112.073C298.301 112.595 297.981 112.835 297.49 112.841C295.448 112.853 293.407 112.927 291.371 112.835C290.039 112.778 291.04 112.021 291.234 111.752C293.253 108.948 295.322 106.174 297.381 103.399C297.798 102.831 298.239 102.27 298.93 101.358Z" fill="#F5C975"/>
</g>
<path d="M79.074 191V158.872H5.38651L0 135.681L82.7368 41H110.747V132.277H131V158.872H110.747V191H79.074ZM38.9984 132.277H79.074V85.8936L38.9984 132.277Z" fill="#232323"/>
<path d="M485.074 191V158.872H411.387L406 135.681L488.737 41H516.747V132.277H537V158.872H516.747V191H485.074ZM444.998 132.277H485.074V85.8936L444.998 132.277Z" fill="#232323"/>
<defs>
<linearGradient id="paint0_linear" x1="288.16" y1="39.386" x2="380.04" y2="42.2309" gradientUnits="userSpaceOnUse">
<stop stop-color="#F0F7FF"/>
<stop offset="1" stop-color="#EDFFF6"/>
</linearGradient>
<linearGradient id="paint1_linear" x1="162.999" y1="86.7797" x2="223.807" y2="88.4704" gradientUnits="userSpaceOnUse">
<stop stop-color="#F0F7FF"/>
<stop offset="1" stop-color="#EDFFF6"/>
</linearGradient>
<linearGradient id="paint2_linear" x1="168.671" y1="4.45171" x2="259.656" y2="11.2449" gradientUnits="userSpaceOnUse">
<stop stop-color="#F0F7FF"/>
<stop offset="1" stop-color="#EDFFF6"/>
</linearGradient>
<clipPath id="clip0">
<rect width="211" height="218" fill="white" transform="translate(163)"/>
</clipPath>
</defs>
</svg>
